<?xml version="1.0" encoding="UTF-8"?><svg id="Layer_2" xmlns="http://www.w3.org/2000/svg" viewBox="0 0 100 101.55"><defs><style>.cls-1{fill:#fff;}</style></defs><g id="Layer_1-2"><path class="cls-1" d="M46.76,91.91c-2.27,3.17-5.04,5.57-8.32,7.19s-7.08,2.44-11.4,2.44c-8.48,0-15.1-3.07-19.88-9.22-4.77-6.14-7.16-14.23-7.16-24.25v-1.35c0-11.18,2.39-20.19,7.16-27.04,4.77-6.85,11.44-10.28,20.01-10.28,4.11,0,7.74.76,10.89,2.28,3.15,1.52,5.83,3.71,8.06,6.58V9.96l-10.47-1.8V0h23.12v90.31l10.47,1.8v8.09h-21.46l-1.03-8.29ZM12.65,68.08c0,6.98,1.43,12.59,4.3,16.83,2.87,4.24,7.3,6.36,13.3,6.36,3.77,0,6.94-.86,9.51-2.57,2.57-1.71,4.69-4.13,6.36-7.26v-32.24c-1.63-2.91-3.75-5.22-6.36-6.94s-5.74-2.57-9.38-2.57c-6.04,0-10.5,2.5-13.39,7.51s-4.34,11.52-4.34,19.53v1.35Z"/><path class="cls-1" d="M65.28,96.15l3.73-.74,10.24-12.78-9.92-12.36-3.73-.74v-4.08h13.62v4.08l-3.15.39,6.49,8.35,6.52-8.38-3.12-.35v-4.08h13.71v4.08l-3.73.74-9.92,12.36,10.21,12.78,3.76.74v4.05h-13.62v-4.05l3.08-.35-6.81-8.74-6.81,8.74,3.12.35v4.05h-13.68v-4.05Z"/></g></svg>