<?xml version="1.0" encoding="UTF-8"?><svg id="Layer_2" xmlns="http://www.w3.org/2000/svg" viewBox="0 0 51.22 9.26"><defs><style>.cls-1{fill:#fff;}</style></defs><g id="Layer_1-2"><path class="cls-1" d="M4.27,8.38c-.21.29-.46.51-.76.66s-.65.22-1.04.22c-.77,0-1.38-.28-1.81-.84s-.65-1.3-.65-2.21v-.12c0-1.02.22-1.84.65-2.47s1.04-.94,1.83-.94c.38,0,.71.07.99.21s.53.34.74.6V.91l-.96-.16v-.74h2.11v8.24l.96.16v.74h-1.96l-.09-.76ZM1.15,6.21c0,.64.13,1.15.39,1.54s.67.58,1.21.58c.34,0,.63-.08.87-.23s.43-.38.58-.66v-2.94c-.15-.27-.34-.48-.58-.63s-.52-.23-.86-.23c-.55,0-.96.23-1.22.69s-.4,1.05-.4,1.78v.12Z"/><path class="cls-1" d="M10.43,9.14c-.04-.17-.06-.33-.08-.46s-.03-.27-.04-.41c-.22.29-.5.52-.83.71s-.69.28-1.07.28c-.66,0-1.16-.16-1.51-.48s-.52-.78-.52-1.36.24-1.07.73-1.39,1.15-.49,2-.49h1.19v-.74c0-.37-.12-.67-.35-.88s-.56-.33-.98-.33c-.29,0-.54.04-.76.11s-.4.18-.54.3l-.12.67h-.89v-1.23c.29-.23.64-.42,1.05-.55s.86-.21,1.34-.21c.72,0,1.3.18,1.75.55s.67.89.67,1.58v3.05c0,.08,0,.16,0,.24s0,.16.01.23l.47.06v.74h-1.51ZM8.57,8.3c.38,0,.73-.09,1.05-.28s.54-.4.68-.66v-1.04h-1.23c-.47,0-.85.11-1.12.33s-.41.48-.41.8c0,.28.09.49.26.64s.43.22.78.22Z"/><path class="cls-1" d="M12,3.54v-.74h1.99l.11.92c.18-.32.4-.58.67-.76s.57-.28.91-.28c.09,0,.18,0,.28.02s.17.03.22.04l-.15,1.07-.66-.04c-.3,0-.56.07-.77.21s-.37.34-.48.6v3.64l.96.16v.74h-3.06v-.74l.96-.16V3.71l-.96-.16Z"/><path class="cls-1" d="M15.79.74v-.74h2.11v5.3h.74l1.35-1.68-.58-.08v-.74h2.65v.74l-.77.15-1.67,1.99,2.03,2.57.72.14v.74h-2.63v-.74l.59-.08-1.68-2.11h-.76v2.02l.96.16v.74h-3.06v-.74l.96-.16V.91l-.96-.16Z"/><path class="cls-1" d="M22.35,3.54v-.74h1.99l.11.92c.18-.32.4-.58.67-.76s.57-.28.91-.28c.09,0,.18,0,.28.02s.17.03.22.04l-.15,1.07-.66-.04c-.3,0-.56.07-.77.21s-.37.34-.48.6v3.64l.96.16v.74h-3.06v-.74l.96-.16V3.71l-.96-.16Z"/><path class="cls-1" d="M26.3,5.91c0-.94.25-1.71.76-2.32s1.2-.91,2.07-.91,1.57.3,2.08.91.76,1.38.76,2.32v.13c0,.95-.25,1.72-.76,2.32s-1.2.9-2.07.9-1.57-.3-2.08-.91-.76-1.38-.76-2.32v-.13ZM27.45,6.04c0,.67.14,1.23.42,1.66s.7.66,1.26.66.96-.22,1.25-.66.43-.99.43-1.66v-.13c0-.66-.14-1.22-.43-1.66s-.71-.66-1.26-.66-.97.22-1.25.66-.42.99-.42,1.66v.13Z"/><path class="cls-1" d="M32.13,5.91c0-.94.25-1.71.76-2.32s1.2-.91,2.07-.91,1.57.3,2.08.91.76,1.38.76,2.32v.13c0,.95-.25,1.72-.76,2.32s-1.2.9-2.07.9-1.57-.3-2.08-.91-.76-1.38-.76-2.32v-.13ZM33.28,6.04c0,.67.14,1.23.42,1.66s.7.66,1.26.66.96-.22,1.25-.66.43-.99.43-1.66v-.13c0-.66-.14-1.22-.43-1.66s-.71-.66-1.26-.66-.97.22-1.25.66-.42.99-.42,1.66v.13Z"/><path class="cls-1" d="M37.73,8.4l.96-.16V3.71l-.96-.16v-.74h1.99l.08.83c.2-.3.46-.53.79-.7s.69-.25,1.11-.25.79.1,1.09.29.53.49.68.88c.2-.36.46-.64.79-.86s.71-.32,1.15-.32c.65,0,1.16.22,1.54.67s.56,1.11.56,2v2.89l.96.16v.74h-3.07v-.74l.96-.16v-2.9c0-.62-.11-1.07-.32-1.33s-.53-.39-.96-.39-.72.14-.97.42-.39.64-.43,1.07v3.12l.96.16v.74h-3.06v-.74l.96-.16v-2.9c0-.59-.11-1.03-.33-1.3s-.54-.41-.96-.41c-.35,0-.64.07-.87.22s-.4.35-.52.61v3.79l.96.16v.74h-3.06v-.74Z"/><path class="cls-1" d="M48.05,8.77l.34-.07.93-1.17-.91-1.13-.34-.07v-.37h1.24v.37l-.29.04.59.76.59-.76-.28-.03v-.37h1.25v.37l-.34.07-.91,1.13.93,1.17.34.07v.37h-1.24v-.37l.28-.03-.62-.8-.62.8.28.03v.37h-1.25v-.37Z"/></g></svg>